# xmcd
#
# Track frame offsets:
# 150
# 19824
# 40417
# 63153
# 91093
# 110257
# 130986
# 149912
# 171287
# 174023
#
# Disc length: 2551 seconds
#
# Revision: 0
# Processed by: cddbd v1.5.2PL0 Copyright (c) Steve Scherf et al.
# Submitted via: Audion 3.0.2 (http://www.panic.com/audion/)
#
DISCID=8309f50a
DTITLE=Buddy Rich - A Different Drummer
DYEAR=1900
DGENRE=
TTITLE0=Superstar
TTITLE1=Domino
TTITLE2=Chelsea Bridge
TTITLE3=Paul's Tune
TTITLE4=Straight, No Chaser
TTITLE5=Heaven on Their Mind
TTITLE6=A Piece of the Road suite
TTITLE7=Countin' Them Long White Lines
TTITLE8=A Piece of the Road
TTITLE9=Back of the Bus
EXTD=
EXTT0=
EXTT1=
EXTT2=
EXTT3=
EXTT4=
EXTT5=
EXTT6=
EXTT7=
EXTT8=
EXTT9=
PLAYORDER=
